<mxfile host="65bd71144e">
    <diagram id="_CZW-0RY-ydbm2YFje_W" name="Page-1">
        <mxGraphModel dx="2830" dy="1870" grid="1" gridSize="10" guides="1" tooltips="1" connect="1" arrows="1" fold="1" page="1" pageScale="1" pageWidth="850" pageHeight="1100" math="0" shadow="0">
            <root>
                <mxCell id="0"/>
                <mxCell id="1" parent="0"/>
                <mxCell id="2" value="" style="verticalLabelPosition=bottom;verticalAlign=top;html=1;shape=mxgraph.basic.rect;fillColor2=none;strokeWidth=1;size=20;indent=5;" vertex="1" parent="1">
                    <mxGeometry x="-630" y="80" width="1000" height="1000" as="geometry"/>
                </mxCell>
                <mxCell id="6" value="&lt;font style=&quot;font-size: 38px&quot;&gt;Time: 3 minutes 8 seconds&lt;/font&gt;" style="text;html=1;align=center;verticalAlign=middle;resizable=0;points=[];autosize=1;strokeColor=none;fillColor=none;" vertex="1" parent="1">
                    <mxGeometry x="-610" y="110" width="470" height="30" as="geometry"/>
                </mxCell>
                <mxCell id="7" value="&lt;font style=&quot;font-size: 27px;&quot;&gt;Millennium Falcon&lt;/font&gt;" style="ellipse;whiteSpace=wrap;html=1;aspect=fixed;fontSize=27;" vertex="1" parent="1">
                    <mxGeometry x="80" y="750" width="150" height="150" as="geometry"/>
                </mxCell>
                <mxCell id="8" value="Asteroid" style="ellipse;shape=cloud;whiteSpace=wrap;html=1;fontSize=27;" vertex="1" parent="1">
                    <mxGeometry x="-130" y="290" width="170" height="110" as="geometry"/>
                </mxCell>
                <mxCell id="9" value="Asteroid" style="ellipse;shape=cloud;whiteSpace=wrap;html=1;fontSize=27;rotation=-15;" vertex="1" parent="1">
                    <mxGeometry x="-620" y="860" width="170" height="110" as="geometry"/>
                </mxCell>
                <mxCell id="10" value="Asteroid" style="ellipse;shape=cloud;whiteSpace=wrap;html=1;fontSize=27;rotation=60;" vertex="1" parent="1">
                    <mxGeometry x="100" y="660" width="170" height="110" as="geometry"/>
                </mxCell>
                <mxCell id="11" value="Asteroid" style="ellipse;shape=cloud;whiteSpace=wrap;html=1;fontSize=27;rotation=45;" vertex="1" parent="1">
                    <mxGeometry x="-180" y="780" width="170" height="110" as="geometry"/>
                </mxCell>
                <mxCell id="12" value="Asteroid" style="ellipse;shape=cloud;whiteSpace=wrap;html=1;fontSize=27;rotation=-165;" vertex="1" parent="1">
                    <mxGeometry x="-425" y="570" width="170" height="110" as="geometry"/>
                </mxCell>
                <mxCell id="13" value="&lt;font style=&quot;font-size: 40px&quot;&gt;GAME OVER!&lt;/font&gt;" style="text;html=1;align=center;verticalAlign=middle;resizable=0;points=[];autosize=1;strokeColor=none;fillColor=none;fontSize=27;" vertex="1" parent="1">
                    <mxGeometry x="-265" y="440" width="270" height="40" as="geometry"/>
                </mxCell>
                <mxCell id="14" value="&lt;font style=&quot;font-size: 35px&quot;&gt;CLICK TO PLAY AGAIN&lt;/font&gt;" style="text;html=1;align=center;verticalAlign=middle;resizable=0;points=[];autosize=1;strokeColor=none;fillColor=none;fontSize=27;" vertex="1" parent="1">
                    <mxGeometry x="-320" y="470" width="380" height="40" as="geometry"/>
                </mxCell>
            </root>
        </mxGraphModel>
    </diagram>
</mxfile>